<?xml version="1.0" encoding="UTF-8"?>
<svg version="1.1" xmlns="http://www.w3.org/2000/svg" width="512" height="512">
<path d="M0 0 C4.64587934 2.15701541 8.00160854 5.23554411 10 10 C10.54381727 13.91981731 10.46582711 17.79143534 10.390625 21.7421875 C10.38496521 22.86569611 10.37930542 23.98920471 10.37347412 25.14675903 C10.351144 28.72327891 10.30095146 32.29878463 10.25 35.875 C10.22993076 38.304673 10.21168073 40.73436175 10.1953125 43.1640625 C10.15129017 49.10971905 10.08441071 55.05478705 10 61 C11.15072998 61.04680908 12.30145996 61.09361816 13.48706055 61.1418457 C22.74976057 61.55993785 31.71019434 62.31709341 40.8125 64.1875 C41.90997559 64.40672119 43.00745117 64.62594238 44.13818359 64.85180664 C60.24442194 68.17026521 75.73527437 72.91138242 91 79 C91.26643311 77.71448242 91.53286621 76.42896484 91.80737305 75.10449219 C92.92952416 70.0667042 94.4404496 65.21779706 96.08203125 60.328125 C96.37808762 59.44268005 96.67414398 58.55723511 96.97917175 57.6449585 C97.6026619 55.78860963 98.22886319 53.93316932 98.85766602 52.07861328 C99.81307052 49.2483099 100.74738183 46.411561 101.68164062 43.57421875 C102.29298138 41.76258519 102.90556891 39.95137178 103.51953125 38.140625 C103.79368362 37.29783997 104.067836 36.45505493 104.35029602 35.58673096 C106.48713971 29.40240857 109.21507777 25.79472766 114.8125 22.1875 C120.37618955 20.11475291 124.87751213 20.24573943 130.25 22.5625 C134.23939402 24.82420369 136.69966716 27.56475594 138 32 C138.91259428 40.08816643 137.19927296 46.87043317 134.5 54.43359375 C134.14486328 55.47395279 133.78972656 56.51431183 133.42382812 57.5861969 C132.2982514 60.87562501 131.1504629 64.15670217 130 67.4375 C128.85335366 70.7444492 127.71153923 74.0529462 126.57617188 77.36378479 C125.87133558 79.41528333 125.15935586 81.46434473 124.43945312 83.51060486 C124.11912109 84.43579422 123.79878906 85.36098358 123.46875 86.31420898 C123.18451172 87.12486313 122.90027344 87.93551727 122.60742188 88.77073669 C121.82473853 91.25812749 121.82473853 91.25812749 122 95 C124.35376459 96.71488563 126.60388724 98.13602815 129.125 99.5625 C137.3122303 104.4370202 144.68275754 109.91307189 152 116 C152.56928223 116.47163574 153.13856445 116.94327148 153.72509766 117.42919922 C161.97635222 124.29865361 169.85631781 131.5286676 177.671875 138.88671875 C180.68948437 141.72263521 183.77486904 144.46353363 186.9140625 147.1640625 C190.41028963 150.24126616 193.8120222 153.42211816 197.21435547 156.60253906 C200.14072195 159.32858625 203.10703512 161.89834368 206.25 164.375 C214.55849935 171.59212868 220.03048843 182.57135816 223 193 C223.17362061 193.609646 223.34724121 194.21929199 223.52612305 194.84741211 C227.06564182 210.9256898 223.4152834 227.46332601 214.91796875 241.21484375 C210.49302387 247.64047654 205.2596947 252.97017993 199.32421875 257.99609375 C196.35854543 260.55305243 193.49420323 263.21079914 190.625 265.875 C185.96037443 270.19870281 181.26331701 274.48130776 176.5234375 278.72265625 C174.19492285 280.82408666 171.89151954 282.95062811 169.59228516 285.08398438 C163.58770519 290.64200604 157.41253128 295.91266589 151 301 C150.03964844 301.77859375 149.07929688 302.5571875 148.08984375 303.359375 C127.57555725 319.64631801 104.53724121 331.9866236 80 341 C79.24895996 341.27827637 78.49791992 341.55655273 77.72412109 341.84326172 C18.45198906 363.51925439 -49.45190915 360.3084015 -107 335 C-108.10480713 334.51877686 -108.10480713 334.51877686 -109.23193359 334.02783203 C-131.94316306 324.03935519 -152.45213886 310.43449895 -171 294 C-171.85851562 293.24074219 -172.71703125 292.48148437 -173.6015625 291.69921875 C-178.62489855 287.2101105 -183.5781031 282.64347769 -188.53930664 278.0859375 C-192.47685471 274.47089096 -196.4466115 270.89329693 -200.42578125 267.32421875 C-202.30615505 265.62646091 -204.17837341 263.92194443 -206.04296875 262.20703125 C-206.56141357 261.73031982 -207.0798584 261.2536084 -207.61401367 260.76245117 C-208.65886421 259.79963234 -209.70201276 258.83496306 -210.7434082 257.8684082 C-213.30613695 255.50086379 -215.90448811 253.28764323 -218.6875 251.1875 C-226.80912146 244.30004651 -232.14227726 233.03605009 -235 223 C-235.17362061 222.390354 -235.34724121 221.78070801 -235.52612305 221.15258789 C-238.9740199 205.49050309 -235.58772975 189.20567353 -227.6953125 175.5625 C-223.45786931 169.15751674 -218.15883138 163.94441322 -212.32421875 159.00390625 C-209.35854543 156.44694757 -206.49420323 153.78920086 -203.625 151.125 C-198.95767883 146.79879861 -194.2574382 142.51421887 -189.515625 138.26953125 C-187.22539323 136.20334389 -184.95758157 134.11475402 -182.69506836 132.01831055 C-167.72971932 118.18717743 -151.9270927 104.86440528 -134 95 C-134.62016979 88.91068187 -136.35107268 83.48995918 -138.34375 77.71875 C-138.67290405 76.74643433 -139.00205811 75.77411865 -139.34118652 74.77233887 C-140.38833207 71.6795547 -141.44318278 68.58949165 -142.5 65.5 C-143.89241639 61.42942021 -145.27676448 57.35622761 -146.65625 53.28125 C-146.97605835 52.35501831 -147.2958667 51.42878662 -147.62536621 50.4744873 C-150.18829619 42.8997135 -151.95295308 36.81765209 -149.08984375 29.0859375 C-146.86166534 24.82125194 -143.55628877 22.51876292 -139 21 C-132.14275595 20.26872048 -127.53398851 20.79416873 -122 25 C-118.07701594 29.99532484 -116.28149784 35.3271466 -114.328125 41.32421875 C-114.00084412 42.30743607 -113.67356323 43.29065338 -113.33636475 44.30366516 C-112.64981762 46.37233464 -111.96762461 48.44245368 -111.28955078 50.51391602 C-110.24900107 53.69054957 -109.19399742 56.86210304 -108.13671875 60.03320312 C-107.47050181 62.04659316 -106.8051083 64.06025589 -106.140625 66.07421875 C-105.82506653 67.02423264 -105.50950806 67.97424652 -105.18438721 68.95304871 C-104.89698669 69.8343898 -104.60958618 70.7157309 -104.31347656 71.6237793 C-104.05906799 72.3984404 -103.80465942 73.1731015 -103.5425415 73.97123718 C-103 76 -103 76 -103 79 C-101.79988281 78.56429687 -100.59976563 78.12859375 -99.36328125 77.6796875 C-83.24420464 71.89003845 -67.13527649 66.71739458 -50.25 63.6875 C-49.37690186 63.52805908 -48.50380371 63.36861816 -47.60424805 63.2043457 C-39.11894661 61.78765434 -30.58069427 61.4116363 -22 61 C-22.00888245 60.37439178 -22.01776489 59.74878357 -22.0269165 59.10421753 C-22.11552695 52.5829178 -22.1757913 46.06178959 -22.21972656 39.54003906 C-22.23982071 37.10735119 -22.26710088 34.67471149 -22.30175781 32.2421875 C-22.3503706 28.74206645 -22.37299139 25.24258498 -22.390625 21.7421875 C-22.41127014 20.65759247 -22.43191528 19.57299744 -22.45318604 18.45553589 C-22.45501167 12.28836149 -22.13562447 8.68407306 -18 4 C-12.72867143 -1.00776214 -6.89190982 -0.92775709 0 0 Z " fill="#F5F6F6" transform="translate(262,48)"/>
<path d="M0 0 C4.64587934 2.15701541 8.00160854 5.23554411 10 10 C10.54381727 13.91981731 10.46582711 17.79143534 10.390625 21.7421875 C10.38496521 22.86569611 10.37930542 23.98920471 10.37347412 25.14675903 C10.351144 28.72327891 10.30095146 32.29878463 10.25 35.875 C10.22993076 38.304673 10.21168073 40.73436175 10.1953125 43.1640625 C10.15129017 49.10971905 10.08441071 55.05478705 10 61 C11.15072998 61.04680908 12.30145996 61.09361816 13.48706055 61.1418457 C22.74976057 61.55993785 31.71019434 62.31709341 40.8125 64.1875 C41.90997559 64.40672119 43.00745117 64.62594238 44.13818359 64.85180664 C60.24442194 68.17026521 75.73527437 72.91138242 91 79 C91.26643311 77.71448242 91.53286621 76.42896484 91.80737305 75.10449219 C92.92952416 70.0667042 94.4404496 65.21779706 96.08203125 60.328125 C96.37808762 59.44268005 96.67414398 58.55723511 96.97917175 57.6449585 C97.6026619 55.78860963 98.22886319 53.93316932 98.85766602 52.07861328 C99.81307052 49.2483099 100.74738183 46.411561 101.68164062 43.57421875 C102.29298138 41.76258519 102.90556891 39.95137178 103.51953125 38.140625 C103.79368362 37.29783997 104.067836 36.45505493 104.35029602 35.58673096 C106.48713971 29.40240857 109.21507777 25.79472766 114.8125 22.1875 C120.37618955 20.11475291 124.87751213 20.24573943 130.25 22.5625 C134.23939402 24.82420369 136.69966716 27.56475594 138 32 C138.91259428 40.08816643 137.19927296 46.87043317 134.5 54.43359375 C134.14486328 55.47395279 133.78972656 56.51431183 133.42382812 57.5861969 C132.2982514 60.87562501 131.1504629 64.15670217 130 67.4375 C128.85335366 70.7444492 127.71153923 74.0529462 126.57617188 77.36378479 C125.87133558 79.41528333 125.15935586 81.46434473 124.43945312 83.51060486 C124.11912109 84.43579422 123.79878906 85.36098358 123.46875 86.31420898 C123.18451172 87.12486313 122.90027344 87.93551727 122.60742188 88.77073669 C121.82473853 91.25812749 121.82473853 91.25812749 122 95 C124.35376459 96.71488563 126.60388724 98.13602815 129.125 99.5625 C137.3122303 104.4370202 144.68275754 109.91307189 152 116 C152.56928223 116.47163574 153.13856445 116.94327148 153.72509766 117.42919922 C161.97635222 124.29865361 169.85631781 131.5286676 177.671875 138.88671875 C180.68948437 141.72263521 183.77486904 144.46353363 186.9140625 147.1640625 C190.41028963 150.24126616 193.8120222 153.42211816 197.21435547 156.60253906 C200.14072195 159.32858625 203.10703512 161.89834368 206.25 164.375 C214.55849935 171.59212868 220.03048843 182.57135816 223 193 C223.17362061 193.609646 223.34724121 194.21929199 223.52612305 194.84741211 C227.06564182 210.9256898 223.4152834 227.46332601 214.91796875 241.21484375 C210.49302387 247.64047654 205.2596947 252.97017993 199.32421875 257.99609375 C196.35854543 260.55305243 193.49420323 263.21079914 190.625 265.875 C185.96037443 270.19870281 181.26331701 274.48130776 176.5234375 278.72265625 C174.19492285 280.82408666 171.89151954 282.95062811 169.59228516 285.08398438 C163.58770519 290.64200604 157.41253128 295.91266589 151 301 C150.03964844 301.77859375 149.07929688 302.5571875 148.08984375 303.359375 C127.57555725 319.64631801 104.53724121 331.9866236 80 341 C79.24895996 341.27827637 78.49791992 341.55655273 77.72412109 341.84326172 C18.45198906 363.51925439 -49.45190915 360.3084015 -107 335 C-108.10480713 334.51877686 -108.10480713 334.51877686 -109.23193359 334.02783203 C-131.94316306 324.03935519 -152.45213886 310.43449895 -171 294 C-171.85851562 293.24074219 -172.71703125 292.48148437 -173.6015625 291.69921875 C-178.62489855 287.2101105 -183.5781031 282.64347769 -188.53930664 278.0859375 C-192.47685471 274.47089096 -196.4466115 270.89329693 -200.42578125 267.32421875 C-202.30615505 265.62646091 -204.17837341 263.92194443 -206.04296875 262.20703125 C-206.56141357 261.73031982 -207.0798584 261.2536084 -207.61401367 260.76245117 C-208.65886421 259.79963234 -209.70201276 258.83496306 -210.7434082 257.8684082 C-213.30613695 255.50086379 -215.90448811 253.28764323 -218.6875 251.1875 C-226.80912146 244.30004651 -232.14227726 233.03605009 -235 223 C-235.17362061 222.390354 -235.34724121 221.78070801 -235.52612305 221.15258789 C-238.9740199 205.49050309 -235.58772975 189.20567353 -227.6953125 175.5625 C-223.45786931 169.15751674 -218.15883138 163.94441322 -212.32421875 159.00390625 C-209.35854543 156.44694757 -206.49420323 153.78920086 -203.625 151.125 C-198.95767883 146.79879861 -194.2574382 142.51421887 -189.515625 138.26953125 C-187.22539323 136.20334389 -184.95758157 134.11475402 -182.69506836 132.01831055 C-167.72971932 118.18717743 -151.9270927 104.86440528 -134 95 C-134.62016979 88.91068187 -136.35107268 83.48995918 -138.34375 77.71875 C-138.67290405 76.74643433 -139.00205811 75.77411865 -139.34118652 74.77233887 C-140.38833207 71.6795547 -141.44318278 68.58949165 -142.5 65.5 C-143.89241639 61.42942021 -145.27676448 57.35622761 -146.65625 53.28125 C-146.97605835 52.35501831 -147.2958667 51.42878662 -147.62536621 50.4744873 C-150.18829619 42.8997135 -151.95295308 36.81765209 -149.08984375 29.0859375 C-146.86166534 24.82125194 -143.55628877 22.51876292 -139 21 C-132.14275595 20.26872048 -127.53398851 20.79416873 -122 25 C-118.07701594 29.99532484 -116.28149784 35.3271466 -114.328125 41.32421875 C-114.00084412 42.30743607 -113.67356323 43.29065338 -113.33636475 44.30366516 C-112.64981762 46.37233464 -111.96762461 48.44245368 -111.28955078 50.51391602 C-110.24900107 53.69054957 -109.19399742 56.86210304 -108.13671875 60.03320312 C-107.47050181 62.04659316 -106.8051083 64.06025589 -106.140625 66.07421875 C-105.82506653 67.02423264 -105.50950806 67.97424652 -105.18438721 68.95304871 C-104.89698669 69.8343898 -104.60958618 70.7157309 -104.31347656 71.6237793 C-104.05906799 72.3984404 -103.80465942 73.1731015 -103.5425415 73.97123718 C-103 76 -103 76 -103 79 C-101.79988281 78.56429687 -100.59976563 78.12859375 -99.36328125 77.6796875 C-83.24420464 71.89003845 -67.13527649 66.71739458 -50.25 63.6875 C-49.37690186 63.52805908 -48.50380371 63.36861816 -47.60424805 63.2043457 C-39.11894661 61.78765434 -30.58069427 61.4116363 -22 61 C-22.00888245 60.37439178 -22.01776489 59.74878357 -22.0269165 59.10421753 C-22.11552695 52.5829178 -22.1757913 46.06178959 -22.21972656 39.54003906 C-22.23982071 37.10735119 -22.26710088 34.67471149 -22.30175781 32.2421875 C-22.3503706 28.74206645 -22.37299139 25.24258498 -22.390625 21.7421875 C-22.41127014 20.65759247 -22.43191528 19.57299744 -22.45318604 18.45553589 C-22.45501167 12.28836149 -22.13562447 8.68407306 -18 4 C-12.72867143 -1.00776214 -6.89190982 -0.92775709 0 0 Z M-167.3203125 162.66137695 C-171.16209137 166.3101739 -175.0757635 169.84937074 -179.07617188 173.32348633 C-195.61406243 186.43347064 -195.61406243 186.43347064 -204.3125 204.53125 C-204.65420895 212.13427408 -203.6117055 218.75397182 -198.56542969 224.68652344 C-192.81905458 230.91092155 -186.57232451 236.69482761 -180.11328125 242.171875 C-177.22175046 244.6732362 -174.42770961 247.27495404 -171.625 249.875 C-166.1260399 254.9655826 -160.60973368 260.03114094 -155 265 C-154.49952148 265.44811035 -153.99904297 265.8962207 -153.48339844 266.35791016 C-130.5607753 286.82206465 -103.48847383 303.80250064 -74 313 C-73.3910791 313.19013672 -72.7821582 313.38027344 -72.15478516 313.57617188 C-54.92556517 318.86732673 -37.05472824 322.59963116 -19 323 C-18.05012207 323.03109863 -17.10024414 323.06219727 -16.12158203 323.09423828 C41.01010592 324.82286925 95.04190926 307.1217494 138 269 C138.85980469 268.23945313 139.71960938 267.47890625 140.60546875 266.6953125 C145.62785362 262.20790344 150.57945998 257.64223121 155.53930664 253.0859375 C158.67664215 250.20556279 161.83025372 247.3446441 165 244.5 C165.80050781 243.77941406 166.60101563 243.05882812 167.42578125 242.31640625 C168.77773993 241.09984859 170.13006897 239.88369449 171.48583984 238.67138672 C185.59878784 226.84836731 185.59878784 226.84836731 192.34765625 210.40234375 C192.78291389 202.46726222 190.86800545 196.43988064 185.61621094 190.41162109 C180.15424484 184.53121169 174.26092601 179.06018604 168.1484375 173.86328125 C165.24761795 171.34747956 162.43993354 168.7361228 159.625 166.125 C154.12601028 161.03444831 148.60973469 155.96885995 143 151 C142.24928223 150.32783447 142.24928223 150.32783447 141.48339844 149.64208984 C119.34001332 129.8735995 94.70866851 115.57398874 67 105 C66.27586914 104.72043457 65.55173828 104.44086914 64.80566406 104.15283203 C54.15825975 100.10617987 43.19439651 97.89149505 32 96 C30.6696875 95.77135254 30.6696875 95.77135254 29.3125 95.53808594 C-45.9995357 83.01313172 -113.43912834 111.45126054 -167.3203125 162.66137695 Z " fill="#0351AD" transform="translate(262,48)"/>
<path d="M0 0 C0.6685199 0.00021149 1.33703979 0.00042297 2.02581787 0.00064087 C12.41533434 0.03349642 21.6967671 0.782438 31.5 4.375 C32.56605469 4.74882812 33.63210938 5.12265625 34.73046875 5.5078125 C58.04224529 14.43069782 75.813677 32.9616403 85.875 55.5 C89.65938734 64.87186228 92.01335747 74.27348089 92.5 84.375 C92.57927734 85.96248047 92.57927734 85.96248047 92.66015625 87.58203125 C93.31115668 112.80122188 83.38719871 135.93693611 66.5 154.375 C53.62882254 167.0330785 53.62882254 167.0330785 44.75 167.625 C40.44784056 167.55382457 37.28945203 166.48834825 33.5 164.375 C29.65942272 160.33228707 28.34850303 157.07897227 28.1875 151.5625 C28.13142578 150.31533203 28.13142578 150.31533203 28.07421875 149.04296875 C29.10227329 142.60112243 34.13861607 138.66882604 38.8125 134.625 C50.97856709 123.67791316 58.31788981 109.94198776 59.75390625 93.4609375 C60.33781141 77.978033 55.26667508 63.80209308 45.1875 52.125 C34.36081771 40.71993068 21.92707092 33.76812676 6.046875 33.00390625 C-5.1866331 32.76773473 -14.44396871 32.9122856 -24.5 38.375 C-25.37398438 38.80941406 -26.24796875 39.24382812 -27.1484375 39.69140625 C-40.9163469 47.12607733 -50.25034205 60.15275212 -54.92651367 74.91821289 C-55.98315989 79.4448331 -55.98650524 83.93324158 -55.9375 88.5625 C-55.92920166 89.57481689 -55.92090332 90.58713379 -55.91235352 91.63012695 C-55.56525713 107.09876787 -50.57438452 120.16720649 -39.9375 131.625 C-28.47128807 142.39838946 -14.62978615 147.96333443 1.0625 148.875 C5.94575756 149.16340716 8.76153239 150.01037915 12.5 153.375 C16.57889284 158.00509458 17.93413151 160.82793309 17.8359375 166.92578125 C17.1488594 171.93505993 14.68261002 175.69059444 10.703125 178.76171875 C0.65796924 184.48745753 -12.52864406 180.737765 -23.0625 178.0625 C-45.83208754 171.41999333 -65.70264512 156.57147195 -77.5625 135.8984375 C-89.36706574 113.35782275 -93.11188211 88.87041397 -85.89794922 64.32666016 C-78.28697518 40.30790838 -62.08268328 21.0756404 -40.05859375 9.09375 C-34.3681183 6.34533156 -28.55597923 4.19602872 -22.5 2.375 C-21.34242188 2.00890625 -20.18484375 1.6428125 -18.9921875 1.265625 C-12.77370583 -0.23805473 -6.3598224 -0.00827384 0 0 Z " fill="#0250AC" transform="translate(254.5,165.625)"/>
<path d="M0 0 C1.43025513 -0.00942627 1.43025513 -0.00942627 2.8894043 -0.01904297 C19.34033893 0.27257501 32.90928235 6.89018895 44.375 18.5 C44.93832031 19.04140625 45.50164062 19.5828125 46.08203125 20.140625 C55.44601467 29.92462878 60.29450138 44.53878538 60.8125 57.8125 C60.34531562 74.79363672 53.41885303 89.76348612 41.375 101.5 C38.7629229 103.87291696 36.13265893 106.20946613 33.44140625 108.4921875 C30.00423918 111.83189236 29.07478623 114.5635744 29 119.3125 C29.1315994 124.56099373 30.09412286 127.37787231 33.375 131.5 C35.69663461 132.89198649 37.77472526 133.64991018 40.375 134.5 C36.60403699 137.01397534 32.77814566 138.20348578 28.5 139.625 C27.69691406 139.90214844 26.89382813 140.17929687 26.06640625 140.46484375 C22.07173205 141.80078916 18.64782984 142.89787484 14.375 142.5 C14.705 141.860625 15.035 141.22125 15.375 140.5625 C17.16332094 135.08576713 17.30788416 130.40164849 14.75 125.1875 C10.01153946 119.82555781 5.88836831 118.06213452 -1.1875 117.5 C-19.33530293 115.66724745 -33.77697691 108.59055111 -45.625 94.5 C-56.37018171 79.76032695 -58.47495538 63.27493228 -56.625 45.5 C-55.74755781 40.78239414 -53.94598908 36.68838384 -51.625 32.5 C-51.11710938 31.55253906 -50.60921875 30.60507813 -50.0859375 29.62890625 C-43.93057984 19.11228806 -35.53509929 10.92286646 -24.625 5.5 C-23.73039062 5.01402344 -22.83578125 4.52804688 -21.9140625 4.02734375 C-14.59389037 0.57860124 -8.014843 0.03985885 0 0 Z " fill="#8CD0FE" transform="translate(254.625,197.5)"/>
<path d="M0 0 C0.66 0.33 1.32 0.66 2 1 C-3.28 6.28 -8.56 11.56 -14 17 C-14.66 16.67 -15.32 16.34 -16 16 C-12.63699159 11.69114547 -9.03918174 8.14405459 -4.8671875 4.61328125 C-3.16296232 3.14080217 -1.56975784 1.61363306 0 0 Z " fill="#437DC1" transform="translate(55,202)"/>
</svg>
