<?xml version="1.0" encoding="UTF-8"?>
<svg version="1.1" xmlns="http://www.w3.org/2000/svg" width="512" height="512">
<path d="M0 0 C0.82757813 0.34417969 1.65515625 0.68835938 2.5078125 1.04296875 C11.83008438 5.45949697 18.75891705 12.8394929 26 20 C26.66708984 20.65339355 27.33417969 21.30678711 28.02148438 21.97998047 C40.99449365 34.69340446 40.99449365 34.69340446 46.15625 40.81640625 C47.69569092 42.63960006 49.26017482 44.43025273 50.84375 46.21484375 C59.0287942 55.47437732 66.64286877 65.07249029 74 75 C74.54688477 75.73653809 75.09376953 76.47307617 75.65722656 77.23193359 C87.84183535 93.70583949 98.69779798 110.71656573 108.66894531 128.61669922 C109.81583583 130.67024749 110.97895838 132.71319317 112.1484375 134.75390625 C146.63453546 196.6177432 149.50580693 264.56949589 130.92578125 331.90087891 C129.66962952 336.10593957 128.18851408 340.22169495 126.65429688 344.33276367 C125.92140352 347.32039797 126.10257895 349.07937104 127 352 C128.42597143 353.86628141 128.42597143 353.86628141 130.3125 355.625 C156.57612618 384.09683804 168.21888514 425.96865783 168.25 463.875 C168.25067474 464.60966492 168.25134949 465.34432983 168.25204468 466.10125732 C168.20746032 496.63278985 168.20746032 496.63278985 160 506 C154.70272443 510.00525714 148.36942639 509.78742909 142 509 C134.3476292 505.31046408 130.85775581 498.19017146 126.875 491.0625 C120.21251337 479.37347514 112.97141164 468.71657756 103.71484375 458.890625 C102 457 102 457 101 455 C96.98041238 456.44292889 93.68906021 458.41023528 90.125 460.75 C66.77191953 475.4778893 37.06254295 480.44184917 10 483 C8.90042969 483.11214844 7.80085937 483.22429687 6.66796875 483.33984375 C-42.01665331 487.47718649 -98.31681714 482.78878858 -140 455 C-151.09917081 466.57147595 -159.71802902 479.09955703 -167.67578125 492.9921875 C-169.29192817 495.79456356 -170.92446654 498.58515398 -172.6015625 501.3515625 C-172.98779785 501.99174316 -173.3740332 502.63192383 -173.77197266 503.29150391 C-175.96857478 506.34753206 -178.46601021 507.97565513 -182 509 C-187.64321022 509.72815616 -192.32513079 509.80752622 -197.5 507.3125 C-207.14669422 498.38930784 -207.5521226 486.59923412 -208.13427734 474.12207031 C-209.4920647 431.48616902 -197.72177578 386.70356348 -168.71484375 354.33203125 C-166.74915414 351.65887248 -166.11596634 350.3147046 -166 347 C-166.75670238 344.35301386 -167.59131 341.87800012 -168.5625 339.3125 C-184.80586339 293.52529124 -187.77509689 242.05101607 -176 195 C-175.78359863 194.11989258 -175.56719727 193.23978516 -175.34423828 192.33300781 C-165.0239567 151.12907132 -142.45081514 112.64179199 -117 79 C-116.45746582 78.27490234 -115.91493164 77.54980469 -115.35595703 76.80273438 C-106.19041822 64.55333724 -96.57738015 52.8181117 -86.265625 41.51171875 C-85.01537699 40.12566794 -83.77135552 38.73359594 -82.55566406 37.31713867 C-77.80798249 31.79433975 -72.8045881 26.55247618 -67.67675781 21.3815918 C-66.7282178 20.42152777 -65.78416119 19.45701268 -64.84472656 18.48803711 C-48.29565688 1.42216989 -23.70549687 -10.92477525 0 0 Z " fill="#E7ECFC" transform="translate(277,3)"/>
<path d="M0 0 C0.82757813 0.34417969 1.65515625 0.68835938 2.5078125 1.04296875 C11.83008438 5.45949697 18.75891705 12.8394929 26 20 C26.66708984 20.65339355 27.33417969 21.30678711 28.02148438 21.97998047 C40.99449365 34.69340446 40.99449365 34.69340446 46.15625 40.81640625 C47.69569092 42.63960006 49.26017482 44.43025273 50.84375 46.21484375 C59.0287942 55.47437732 66.64286877 65.07249029 74 75 C74.54688477 75.73653809 75.09376953 76.47307617 75.65722656 77.23193359 C87.84183535 93.70583949 98.69779798 110.71656573 108.66894531 128.61669922 C109.81583583 130.67024749 110.97895838 132.71319317 112.1484375 134.75390625 C146.63453546 196.6177432 149.50580693 264.56949589 130.92578125 331.90087891 C129.66962952 336.10593957 128.18851408 340.22169495 126.65429688 344.33276367 C125.92140352 347.32039797 126.10257895 349.07937104 127 352 C128.42597143 353.86628141 128.42597143 353.86628141 130.3125 355.625 C156.57612618 384.09683804 168.21888514 425.96865783 168.25 463.875 C168.25067474 464.60966492 168.25134949 465.34432983 168.25204468 466.10125732 C168.20746032 496.63278985 168.20746032 496.63278985 160 506 C154.70272443 510.00525714 148.36942639 509.78742909 142 509 C134.3476292 505.31046408 130.85775581 498.19017146 126.875 491.0625 C120.21251337 479.37347514 112.97141164 468.71657756 103.71484375 458.890625 C102 457 102 457 101 455 C96.98041238 456.44292889 93.68906021 458.41023528 90.125 460.75 C66.77191953 475.4778893 37.06254295 480.44184917 10 483 C8.90042969 483.11214844 7.80085937 483.22429687 6.66796875 483.33984375 C-42.01665331 487.47718649 -98.31681714 482.78878858 -140 455 C-151.09917081 466.57147595 -159.71802902 479.09955703 -167.67578125 492.9921875 C-169.29192817 495.79456356 -170.92446654 498.58515398 -172.6015625 501.3515625 C-172.98779785 501.99174316 -173.3740332 502.63192383 -173.77197266 503.29150391 C-175.96857478 506.34753206 -178.46601021 507.97565513 -182 509 C-187.64321022 509.72815616 -192.32513079 509.80752622 -197.5 507.3125 C-207.14669422 498.38930784 -207.5521226 486.59923412 -208.13427734 474.12207031 C-209.4920647 431.48616902 -197.72177578 386.70356348 -168.71484375 354.33203125 C-166.74915414 351.65887248 -166.11596634 350.3147046 -166 347 C-166.75670238 344.35301386 -167.59131 341.87800012 -168.5625 339.3125 C-182.26837169 300.67803785 -185.59097255 258.52253262 -181 218 C-180.87882812 216.7934375 -180.75765625 215.586875 -180.6328125 214.34375 C-180.05836948 209.9826724 -179.50500371 206.91492541 -176.25 203.8125 C-172.64215081 201.80043026 -171.03817375 201.1408141 -167 202 C-164.30859375 204.06640625 -164.30859375 204.06640625 -162 207 C-161.76141022 209.792724 -161.7782879 211.84396194 -162.125 214.5625 C-162.25132812 215.86316406 -162.37765625 217.16382813 -162.5078125 218.50390625 C-162.58572021 219.20942627 -162.66362793 219.91494629 -162.74389648 220.6418457 C-166.07604387 251.32364897 -164.15479668 282.02565116 -157 312 C-156.84305664 312.68642578 -156.68611328 313.37285156 -156.52441406 314.08007812 C-152.34093561 332.30188036 -146.08142321 350.78438503 -137.01367188 367.16113281 C-135.95548864 369.08074652 -134.93791616 371.01872846 -133.921875 372.9609375 C-128.55168827 383.05307973 -122.14131954 392.08964119 -115 401 C-114.57605957 401.54591797 -114.15211914 402.09183594 -113.71533203 402.65429688 C-99.36580583 421.00040615 -71.15195424 427.23830501 -48.92913818 430.28379822 C-43.59230549 430.91202241 -38.34009415 431.16025772 -32.96875 431.16796875 C-32.13396118 431.17129715 -31.29917236 431.17462555 -30.43908691 431.17805481 C-28.6810765 431.18308431 -26.92305667 431.18546438 -25.16503906 431.18530273 C-22.53433613 431.18747169 -19.90406558 431.2056219 -17.2734375 431.22460938 C10.59437212 431.31729193 47.38259127 427.71697719 69 408 C110.95495673 362.25124399 125.88556365 296.40523051 124.17480469 235.94287109 C122.77147287 204.28950677 111.63098365 173.74523946 97.00488281 145.92431641 C95.98069048 143.96302293 94.98494706 141.98908476 93.9921875 140.01171875 C77.71610905 107.97057275 55.29030961 78.89228463 31.16015625 52.37890625 C29.73931735 50.81418494 28.33004897 49.23886471 26.93359375 47.65234375 C8.41886961 25.4946252 8.41886961 25.4946252 -17.09765625 14.69140625 C-30.61653873 14.16962482 -38.09169145 19.35788969 -48 28 C-51.66883983 31.43876226 -55.21932087 34.98256763 -58.75 38.5625 C-59.64332031 39.45646484 -60.53664062 40.35042969 -61.45703125 41.27148438 C-66.50708525 46.35500707 -71.35666538 51.54363305 -76 57 C-76.87724321 58.00942839 -77.75482281 59.01856457 -78.6328125 60.02734375 C-86.10865089 68.75696695 -93.12409985 77.79229046 -100 87 C-100.53915039 87.71816895 -101.07830078 88.43633789 -101.63378906 89.17626953 C-113.68082777 105.28366013 -124.15959688 122.26777499 -133.78125 139.921875 C-134.1421875 140.57994141 -134.503125 141.23800781 -134.875 141.91601562 C-135.68453413 143.41562138 -136.47384084 144.92621077 -137.25 146.44335938 C-137.88421875 147.65475586 -137.88421875 147.65475586 -138.53125 148.890625 C-138.90830078 149.62829102 -139.28535156 150.36595703 -139.67382812 151.12597656 C-141.251792 153.35580917 -142.44291293 154.08433542 -145 155 C-149.16734046 154.92558321 -151.26644159 154.63951246 -154.4375 151.875 C-156.33829092 148.3775447 -156.71385906 145.85192883 -156 142 C-154.4542135 138.17986907 -152.46587317 134.6450774 -150.4375 131.0625 C-149.56436157 129.49109253 -149.56436157 129.49109253 -148.67358398 127.88793945 C-138.28719604 109.40163159 -126.87811434 91.83843728 -114 75 C-113.09544346 73.79886238 -112.19173525 72.59708521 -111.2890625 71.39453125 C-103.44967236 61.00688318 -95.03284625 51.12459717 -86.265625 41.51171875 C-85.01537699 40.12566794 -83.77135552 38.73359594 -82.55566406 37.31713867 C-77.80798249 31.79433975 -72.8045881 26.55247618 -67.67675781 21.3815918 C-66.7282178 20.42152777 -65.78416119 19.45701268 -64.84472656 18.48803711 C-48.29565688 1.42216989 -23.70549687 -10.92477525 0 0 Z " fill="#438EFE" transform="translate(277,3)"/>
<path d="M0 0 C12.41156598 8.06050004 20.57558709 19.02384878 24.2421875 33.57421875 C26.39897917 47.94549385 23.80247008 62.08246748 15.625 74.125 C7.24404878 85.25059022 -3.53341159 92.69665116 -17.375 95.125 C-32.846797 96.72003062 -45.5029538 94.46015612 -58.1640625 84.93359375 C-68.96220567 76.1004837 -75.72507511 65.12041549 -77.375 51.125 C-78.092389 41.14923217 -77.95876568 32.22452297 -73.375 23.125 C-72.64603516 21.63033203 -72.64603516 21.63033203 -71.90234375 20.10546875 C-64.62329506 6.42498718 -53.36211983 -1.1205442 -38.95703125 -6.04296875 C-25.52359293 -9.16327667 -11.90148189 -6.80084679 0 0 Z " fill="#448EFE" transform="translate(283.375,134.875)"/>
<path d="M0 0 C1.216875 0.04125 2.43375 0.0825 3.6875 0.125 C0.07430434 4.64149457 -3.82153991 8.58052981 -8.125 12.4375 C-12.72337074 16.5744083 -16.9569854 20.87048331 -21.03515625 25.53125 C-23.11766096 27.9030907 -25.24603293 30.22479068 -27.39550781 32.53588867 C-32.96071796 38.53162593 -38.23203212 44.71086188 -43.3125 51.125 C-43.81620117 51.75615723 -44.31990234 52.38731445 -44.83886719 53.03759766 C-93.81261904 114.52236409 -129.16793631 185.21557892 -120.1875 265.4375 C-117.42338966 287.47849876 -113.20977713 311.55112096 -104.046875 331.94140625 C-103.08205066 334.81021906 -103.30663725 336.27729079 -104.3125 339.125 C-106.16015625 341.58203125 -106.16015625 341.58203125 -108.375 343.9375 C-109.10847656 344.72769531 -109.84195313 345.51789063 -110.59765625 346.33203125 C-111.44650391 347.21955078 -111.44650391 347.21955078 -112.3125 348.125 C-115.3125 347.125 -115.3125 347.125 -116.29223633 345.4453125 C-116.57349365 344.72085937 -116.85475098 343.99640625 -117.14453125 343.25 C-117.46510498 342.43861572 -117.78567871 341.62723145 -118.1159668 340.79125977 C-118.44894775 339.91139404 -118.78192871 339.03152832 -119.125 338.125 C-119.4753833 337.2187085 -119.8257666 336.31241699 -120.18676758 335.37866211 C-121.24156463 332.63215042 -122.27796932 329.87919776 -123.3125 327.125 C-123.60092773 326.37492676 -123.88935547 325.62485352 -124.18652344 324.85205078 C-133.46379519 300.6917861 -138.87619269 274.00755175 -139.3125 248.125 C-139.33296387 247.09358887 -139.35342773 246.06217773 -139.37451172 244.99951172 C-139.60932861 231.32385335 -139.42781173 217.87923156 -137.75 204.296875 C-136.64882661 196.6398787 -136.64882661 196.6398787 -138.9375 189.625 C-142.03102796 187.67119287 -143.70619166 187.60981309 -147.3125 188.125 C-150.13030534 189.51385248 -150.13030534 189.51385248 -152.3125 191.125 C-149.38551182 169.57631112 -141.29486665 148.3418687 -131.3125 129.125 C-130.9825 129.125 -130.6525 129.125 -130.3125 129.125 C-130.065 130.218125 -129.8175 131.31125 -129.5625 132.4375 C-128.57621319 136.01423181 -128.57621319 136.01423181 -126.75 138.125 C-122.91426611 139.69863442 -119.3158132 138.83498931 -115.3125 138.125 C-115.06886719 137.47144531 -114.82523438 136.81789062 -114.57421875 136.14453125 C-102.69509613 107.7155474 -83.51701485 81.99400325 -64.3125 58.125 C-63.54292969 57.16078125 -62.77335937 56.1965625 -61.98046875 55.203125 C-57.46058415 49.59878473 -52.75266698 44.21427166 -47.8671875 38.92578125 C-45.90353442 36.77296892 -43.99120224 34.59727901 -42.08984375 32.390625 C-37.90785791 27.59984764 -33.48111959 23.07241394 -29 18.5625 C-28.20916016 17.75103516 -27.41832031 16.93957031 -26.60351562 16.10351562 C-10.25847782 -0.34774501 -10.25847782 -0.34774501 0 0 Z " fill="#FDFDFE" transform="translate(251.3125,17.875)"/>
<path d="M0 0 C9.08873113 6.65831835 17.5223063 15.7251017 20 27 C21.46947445 40.72981067 19.85078049 52.50890731 11.6875 63.9375 C4.10713703 73.20238807 -6.55627824 79.10673322 -18.5078125 80.37109375 C-31.74880124 80.61417886 -42.28791872 77.14193886 -52 68 C-56.50834008 63.54220184 -59.54347084 58.83016254 -62 53 C-62.30035156 52.31164062 -62.60070312 51.62328125 -62.91015625 50.9140625 C-66.73991029 41.04576604 -65.6790104 30.76183637 -62 21 C-56.72940481 9.51698505 -48.86912851 2.15651376 -37.5625 -3.4375 C-25.76836795 -7.71612835 -10.70317536 -6.27025259 0 0 Z " fill="#FDFEFF" transform="translate(279,287)"/>
<path d="M0 0 C22.05016781 1.87661003 39.58187144 25.3562587 53 41 C54.05708992 42.20314586 55.11565957 43.4049934 56.17578125 44.60546875 C62.60362328 51.92789172 68.80281016 59.3477587 74.62646484 67.16259766 C76.1526368 69.20418495 77.69589456 71.23235733 79.23828125 73.26171875 C92.30341105 90.58069731 103.88342541 108.8087272 114 128 C114.52086182 128.98395752 114.52086182 128.98395752 115.05224609 129.98779297 C131.93251109 162.12723683 143.51920895 196.51026175 143.25 233.125 C143.24689819 233.79564484 143.24379639 234.46628967 143.24060059 235.15725708 C143.17755372 246.86994486 142.58013091 258.39330027 141 270 C140.88172852 270.91168945 140.76345703 271.82337891 140.64160156 272.76269531 C134.6110813 317.86116617 116.99403648 367.57404672 82.6640625 399.1484375 C79.22558659 401.53822867 75.65187348 403.16903968 71.8125 404.8125 C71.08869141 405.13669922 70.36488281 405.46089844 69.61914062 405.79492188 C67.77365352 406.59663581 65.88868858 407.30615325 64 408 C63.34 407.67 62.68 407.34 62 407 C62.75023437 406.28457031 63.50046875 405.56914062 64.2734375 404.83203125 C100.226823 370.04911111 119.72087591 319.06041118 125 270 C125.10151367 269.07251953 125.20302734 268.14503906 125.30761719 267.18945312 C132.32115857 200.24000135 112.25647723 140.724021 74 86 C73.56365234 85.36819824 73.12730469 84.73639648 72.67773438 84.08544922 C62.98983997 70.06159937 52.64006283 56.76915291 41.53833008 43.84204102 C40.39770227 42.47622022 39.28438508 41.08749224 38.1862793 39.68725586 C31.4246246 31.13935457 23.80981553 23.58346844 16.0625 15.9375 C14.72283666 14.6078959 13.38364079 13.27782062 12.04492188 11.94726562 C9.61492032 9.53346852 7.18246898 7.12221035 4.74633789 4.71459961 C3.16036854 3.14695864 1.57683179 1.57683179 0 0 Z " fill="#C8D8FC" transform="translate(259,17)"/>
<path d="M0 0 C13.43168383 9.07703129 21.87125124 22.65617333 26.0234375 38.26953125 C29.05418151 54.68851337 24.86530673 71.07328621 15.7109375 84.83203125 C5.7062008 98.1275509 -8.01816421 106.78967732 -24.5078125 109.546875 C-41.28861595 111.26737872 -56.2747145 108.37142903 -69.9140625 97.796875 C-82.68869642 86.75538501 -91.65659158 72.97297589 -93.2890625 55.83203125 C-94.27288238 38.56833473 -89.60439519 23.33759474 -78.6015625 9.95703125 C-71.46896209 2.52957925 -62.04754688 -3.81674547 -52.2890625 -7.16796875 C-51.2784375 -7.52246094 -50.2678125 -7.87695312 -49.2265625 -8.2421875 C-32.51031624 -12.88806506 -14.35563472 -8.94872243 0 0 Z M-67.13671875 23.13671875 C-68.63327955 25.32088856 -69.98939135 27.52630237 -71.2890625 29.83203125 C-71.8665625 30.82203125 -72.4440625 31.81203125 -73.0390625 32.83203125 C-77.90416053 44.50826652 -77.42241359 55.86831554 -72.8359375 67.56640625 C-67.61096059 78.59691305 -58.71208158 86.69069615 -47.2890625 90.83203125 C-46.35578125 91.18910156 -45.4225 91.54617188 -44.4609375 91.9140625 C-34.44169889 94.81371899 -23.59284174 93.26178007 -14.2890625 88.83203125 C-2.99030935 82.41966416 4.65473747 73.54249801 8.25292969 60.93261719 C10.63289532 50.01725241 9.72661534 37.30322636 3.7109375 27.83203125 C-3.49615899 18.22713649 -12.2853255 10.31317319 -24.2890625 7.83203125 C-41.02130974 5.94217354 -56.13405698 9.41246833 -67.13671875 23.13671875 Z " fill="#448EFE" transform="translate(290.2890625,274.16796875)"/>
<path d="M0 0 C8.35686904 6.08533096 14.15382312 13.02600622 17 23 C18.15688576 33.4792326 16.25637705 42.57053041 10.3125 51.3125 C6.86105912 55.5550772 2.75637533 58.36759228 -2 61 C-2.90492188 61.51240234 -2.90492188 61.51240234 -3.828125 62.03515625 C-11.7047382 65.71661677 -22.30530724 65.33700136 -30.375 62.5 C-40.28580288 57.80020163 -46.20614044 50.19841395 -50.09765625 40.171875 C-52.89108173 30.3525612 -51.59232302 21.40130969 -46.703125 12.5859375 C-36.30154815 -3.2072824 -17.16607318 -9.48584488 0 0 Z " fill="#FDFEFF" transform="translate(274,149)"/>
<path d="M0 0 C4.50689495 3.17003623 7.01466653 6.62341504 9.8125 11.25 C10.45880371 12.30574219 10.45880371 12.30574219 11.11816406 13.3828125 C31.54989272 47.27987968 38.75869111 83.76891681 33 123 C32.34 123 31.68 123 31 123 C30.55011719 122.1028125 30.10023438 121.205625 29.63671875 120.28125 C22.36211851 106.05964742 13.50550498 93.04839267 3 81 C2.55043945 80.47809082 2.10087891 79.95618164 1.63769531 79.41845703 C-8.65020982 67.54592196 -19.96893897 59.03816126 -34 52 C-31.43219536 47.99981454 -28.73931869 44.48932259 -25.5625 40.9375 C-15.13721043 28.8213011 -7.24214807 14.19461022 0 0 Z " fill="#E6ECFC" transform="translate(393,371)"/>
<path d="M0 0 C6.2745293 2.67429746 12.61507366 4.74458252 19.1875 6.5625 C20.01838135 6.79984863 20.8492627 7.03719727 21.70532227 7.28173828 C38.70791729 11.86595184 55.52359315 12.91669494 73.0625 12.8125 C74.64257843 12.80893494 74.64257843 12.80893494 76.25457764 12.80529785 C91.96344624 12.749839 107.10883166 12.11442665 122.4375 8.375 C123.11103516 8.22015137 123.78457031 8.06530273 124.47851562 7.90576172 C130.23461501 6.55639574 135.7318806 4.65474766 141.25390625 2.56640625 C142.10098145 2.24712158 142.94805664 1.92783691 143.82080078 1.59887695 C145.47937365 0.96648858 147.13310232 0.32118976 148.78076172 -0.33911133 C156.87119712 -3.47588725 162.73887246 -2.94894538 170.6875 0.1875 C171.39390625 0.44853516 172.1003125 0.70957031 172.828125 0.97851562 C176.27017054 2.29861832 179.12876485 3.41804306 181.4375 6.375 C171.78345387 12.31827215 162.19617433 16.81453833 151.4375 20.375 C150.2 20.80554688 148.9625 21.23609375 147.6875 21.6796875 C97.86664135 37.93268076 26.56483518 37.20537761 -20.42138672 13.43457031 C-24.18184764 11.49547797 -27.88633308 9.47035315 -31.5625 7.375 C-30.5625 4.375 -30.5625 4.375 -27.76171875 2.8046875 C-26.60285156 2.29164063 -25.44398438 1.77859375 -24.25 1.25 C-23.09886719 0.73179687 -21.94773438 0.21359375 -20.76171875 -0.3203125 C-13.28148924 -3.37085787 -7.47275918 -3.37702906 0 0 Z " fill="#E5EBFC" transform="translate(182.5625,438.625)"/>
<path d="M0 0 C2.53211194 3.08221933 4.34202928 6.38645416 6.20898438 9.88818359 C14.18603975 24.8182129 23.89467391 38.24853044 35 51 C32.62471473 53.66438249 30.17024033 55.0793403 27 56.6875 C18.53097106 61.22447979 10.89116076 66.34568419 4.7890625 73.8359375 C2.73837041 76.31646898 0.53115307 78.60615344 -1.6875 80.9375 C-13.14518709 93.55831594 -21.75290271 108.15964824 -30 123 C-30.66 122.67 -31.32 122.34 -32 122 C-33.44150623 114.810832 -33.18612185 107.42699013 -33.18530273 100.12133789 C-33.18747057 97.9667528 -33.20562162 95.81269679 -33.22460938 93.65820312 C-33.27986602 80.53860389 -31.92146958 67.86954113 -28.375 55.1875 C-28.11702637 54.25808594 -27.85905273 53.32867187 -27.59326172 52.37109375 C-22.42656368 34.52083786 -13.30037931 13.30037931 0 0 Z " fill="#E6ECFC" transform="translate(120,371)"/>
<path d="M0 0 C3.33400522 4.12781599 6.13469259 7.79209792 5.80078125 13.265625 C4.94092328 17.27549925 3.41127303 20.40247436 1.4375 23.9375 C-9.02785565 43.95475842 -14.94514781 66.83017431 -15.16333008 89.43432617 C-15.27627068 99.96290028 -18.80317682 105.69899237 -25 114 C-26.05595187 115.77119615 -27.08318611 117.56030596 -28.0625 119.375 C-28.44535156 120.08398438 -28.82820313 120.79296875 -29.22265625 121.5234375 C-29.47917969 122.01070313 -29.73570313 122.49796875 -30 123 C-30.66 122.67 -31.32 122.34 -32 122 C-33.44150623 114.810832 -33.18612185 107.42699013 -33.18530273 100.12133789 C-33.18747057 97.9667528 -33.20562162 95.81269679 -33.22460938 93.65820312 C-33.27986602 80.53860389 -31.92146958 67.86954113 -28.375 55.1875 C-28.11702637 54.25808594 -27.85905273 53.32867187 -27.59326172 52.37109375 C-22.42656368 34.52083786 -13.30037931 13.30037931 0 0 Z " fill="#FCFDFE" transform="translate(120,371)"/>
<path d="M0 0 C4.50689495 3.17003623 7.01466653 6.62341504 9.8125 11.25 C10.45880371 12.30574219 10.45880371 12.30574219 11.11816406 13.3828125 C31.54989272 47.27987968 38.75869111 83.76891681 33 123 C32.34 123 31.68 123 31 123 C30.48050781 122.01 29.96101563 121.02 29.42578125 120 C28.72151189 118.66658335 28.0170758 117.33325475 27.3125 116 C26.97283203 115.35160156 26.63316406 114.70320313 26.28320312 114.03515625 C25.93837891 113.38417969 25.59355469 112.73320312 25.23828125 112.0625 C24.8832251 111.38936768 24.52816895 110.71623535 24.16235352 110.02270508 C23.03486275 107.97523485 23.03486275 107.97523485 21.61694336 106.1081543 C17.44321317 100.34541434 17.54118306 95.76350571 17.9375 88.8125 C18.64658586 61.96794797 10.07153387 35.76896859 -4 13 C-4.66 12.34 -5.32 11.68 -6 11 C-4.02 7.37 -2.04 3.74 0 0 Z " fill="#C7D7FC" transform="translate(393,371)"/>
<path d="M0 0 C1.17018677 -0.00287018 1.17018677 -0.00287018 2.36401367 -0.00579834 C4.00797856 -0.00715502 5.65195434 -0.00349479 7.29589844 0.00488281 C9.80428254 0.01558992 12.31195053 0.00497021 14.8203125 -0.0078125 C16.42187657 -0.00649081 18.0234402 -0.00392823 19.625 0 C20.37096436 -0.00404846 21.11692871 -0.00809692 21.88549805 -0.01226807 C26.83816755 0.03206855 30.60572476 0.59967871 34.59765625 3.61328125 C36.16347553 5.74299687 36.24556997 7.07611479 36.25 9.703125 C36.26933594 10.46496094 36.28867187 11.22679687 36.30859375 12.01171875 C35.58457112 15.30117591 34.53986235 16.25938171 31.8125 18.265625 C28.59730758 18.87122 25.42012473 18.82599992 22.15625 18.796875 C20.74732483 18.80261536 20.74732483 18.80261536 19.30993652 18.80847168 C17.32624234 18.81119076 15.3425123 18.80382984 13.35888672 18.78710938 C10.32307984 18.76569961 7.28963954 18.78691107 4.25390625 18.8125 C2.32551561 18.80985672 0.39712644 18.80473175 -1.53125 18.796875 C-2.89231873 18.80902039 -2.89231873 18.80902039 -4.28088379 18.82141113 C-10.5399369 18.72831207 -10.5399369 18.72831207 -13.73242188 16.44726562 C-15.80201735 13.34426141 -16.12241952 10.97521262 -16.1875 7.265625 C-14.94314095 4.15472739 -14.04903387 2.72396422 -11.08203125 1.14550781 C-7.3682477 0.01658778 -3.8434368 -0.02085892 0 0 Z " fill="#418DFF" transform="translate(460.1875,237.734375)"/>
<path d="M0 0 C0.77916779 -0.00570007 1.55833557 -0.01140015 2.3611145 -0.01727295 C4.00684256 -0.02670146 5.65258931 -0.03324838 7.29833984 -0.03710938 C9.80469963 -0.04681454 12.31023872 -0.07785707 14.81640625 -0.109375 C16.41926599 -0.11590592 18.02213156 -0.12115604 19.625 -0.125 C20.36894012 -0.1373468 21.11288025 -0.1496936 21.87936401 -0.16241455 C26.65098441 -0.14217078 29.88683027 0.6938525 33.9453125 3.203125 C36.11753629 5.84757135 35.94424571 7.23299518 35.8203125 10.703125 C34.81533733 14.7230257 34.29277992 15.82013862 30.9453125 18.203125 C27.72830047 18.80166632 24.55362405 18.76350605 21.2890625 18.734375 C19.88013733 18.74011536 19.88013733 18.74011536 18.44274902 18.74597168 C16.45905484 18.74869076 14.4753248 18.74132984 12.49169922 18.72460938 C9.45589234 18.70319961 6.42245204 18.72441107 3.38671875 18.75 C1.45832811 18.74735672 -0.47006106 18.74223175 -2.3984375 18.734375 C-3.75950623 18.74652039 -3.75950623 18.74652039 -5.14807129 18.75891113 C-11.42736799 18.66551096 -11.42736799 18.66551096 -14.625 16.30859375 C-17.04695527 12.74183448 -16.81598322 9.34457372 -16.0546875 5.203125 C-12.02356753 -0.55561782 -6.48944736 0.03687136 0 0 Z " fill="#418DFF" transform="translate(34.0546875,237.796875)"/>
<path d="M0 0 C0.53788147 0.36501617 1.07576294 0.73003235 1.62994385 1.10610962 C2.75559037 1.87316428 3.87811063 2.64482552 4.99755859 3.42089844 C6.70507077 4.60290944 8.42373141 5.76713062 10.14453125 6.9296875 C19.69339875 13.47683509 19.69339875 13.47683509 21.953125 17.2265625 C22.47449101 21.3230097 22.37123056 23.48683727 20.328125 27.1015625 C17.33739911 29.77747514 15.97157207 30.30384033 11.953125 30.2265625 C4.98231909 27.1734274 -1.11132456 22.97492631 -7.359375 18.6640625 C-8.84147461 17.65569336 -8.84147461 17.65569336 -10.35351562 16.62695312 C-20.79247901 9.47104017 -20.79247901 9.47104017 -21.48046875 6.10546875 C-21.49099901 -0.13897463 -21.49099901 -0.13897463 -19.296875 -3.2734375 C-12.47739826 -7.81975533 -6.26090757 -4.26991047 0 0 Z " fill="#428DFF" transform="translate(73.046875,115.7734375)"/>
<path d="M0 0 C2.69773891 2.42796502 2.97481239 3.80209734 3.4375 7.4375 C2.91522824 11.69028436 1.87242344 12.88648586 -1 16 C-3.76147461 18.11230469 -3.76147461 18.11230469 -6.90234375 20.171875 C-7.46192276 20.53976135 -8.02150177 20.90764771 -8.59803772 21.28668213 C-9.77452081 22.05703151 -10.95372773 22.82323564 -12.13549805 23.58544922 C-13.93643883 24.74931421 -15.72531164 25.93020085 -17.51367188 27.11328125 C-18.66338154 27.86302444 -19.81375067 28.61175753 -20.96484375 29.359375 C-22.0024585 30.03452148 -23.04007324 30.70966797 -24.10913086 31.40527344 C-27.86449808 33.47689397 -30.45655919 34.44098309 -34.625 33.25 C-36.99177845 32.00432713 -38.31353596 31.05123295 -40 29 C-40.5390625 26.94921875 -40.5390625 26.94921875 -40.625 24.6875 C-40.67914063 23.94886719 -40.73328125 23.21023437 -40.7890625 22.44921875 C-38.4287267 15.12282991 -27.42342192 10.1443509 -21.3125 6.1875 C-20.28060547 5.50751953 -19.24871094 4.82753906 -18.18554688 4.12695312 C-17.19232422 3.48048828 -16.19910156 2.83402344 -15.17578125 2.16796875 C-14.27770752 1.58297607 -13.37963379 0.9979834 -12.4543457 0.39526367 C-7.69212779 -2.31199539 -5.05795092 -2.25993552 0 0 Z " fill="#428DFF" transform="translate(459,112)"/>
<path d="M0 0 C2.70467181 3.261516 2.80125161 5.29205827 2.53515625 9.43359375 C2.125 11.5625 2.125 11.5625 0.625 14.125 C-2.91798569 16.16221677 -5.88972463 16.47715336 -9.875 15.5625 C-12.67545391 13.39214822 -13.64465013 11.81516452 -14.28515625 8.33203125 C-14.43816887 5.92698673 -14.39641153 3.91565291 -13.875 1.5625 C-9.71267184 -2.47740675 -5.03434328 -2.51717164 0 0 Z " fill="#4991FF" transform="translate(121.875,173.4375)"/>
</svg>
